<svg version="1.2" xmlns="http://www.w3.org/2000/svg" viewBox="0 0 1000 1000" width="1000" height="1000">
	<title>day94-ui-ux-svg</title>
	<style>
		.s0 { fill: #444e59 } 
		.s1 { fill: #bbbfc2 } 
		.s2 { fill: #28a8e0 } 
		.s3 { opacity: .4;fill: #848484 } 
		.s4 { fill: none;stroke: #444e59;stroke-linecap: round;stroke-linejoin: round;stroke-width: 4 } 
		.s5 { opacity: .3;fill: #848484 } 
		.s6 { fill: #afb1b2 } 
		.s7 { fill: #aeaeaf } 
		.s8 { fill: #ffffff } 
		.s9 { fill: #6567c3 } 
		.s10 { opacity: .2;fill: #444e59 } 
		.s11 { opacity: .2;fill: none;stroke: #444e59;stroke-linecap: round;stroke-linejoin: round;stroke-width: 4 } 
		.s12 { fill: #f09f54 } 
		.s13 { fill: #ed8b3b } 
		.s14 { fill: #ff6c37 } 
		.s15 { fill: #8d91db } 
		.s16 { fill: #beccd5;stroke: #444e59;stroke-linecap: round;stroke-linejoin: round;stroke-width: 4 } 
		.s17 { opacity: .3;fill: none;stroke: #444e59;stroke-linecap: round;stroke-linejoin: round;stroke-width: 4 } 
		.s18 { opacity: .6;fill: #ffffff } 
		.s19 { opacity: .7;fill: #5d5d5d } 
		.s20 { opacity: .8;fill: #bbbfc2 } 
		.s21 { fill: none;stroke: #444e59;stroke-linejoin: round;stroke-width: 2 } 
		.s22 { fill: none;stroke: #444e59;stroke-linejoin: round;stroke-width: 2;stroke-dasharray: 2,2 } 
		.s23 { fill: none;stroke: #444e59;stroke-linejoin: round;stroke-width: 2;stroke-dasharray: 4,2 } 
		.s24 { fill: none;stroke: #444e59;stroke-linejoin: round } 
		.s25 { fill: none;stroke: #444e59;stroke-linecap: round;stroke-linejoin: round } 
		.s26 { fill: none;stroke: #444e59;stroke-linejoin: round;stroke-width: 1 } 
	</style>
	<path id="XMLID_1313_" class="s0" d="m909.8 666.3h-814.1c-5 0-9-4-9-9 0-5 4-9 9-9h814.2c5 0 9 4 9 9-0.1 5-4.1 9-9.1 9z"/>
	<g id="XMLID_24_">
		<path id="XMLID_6_" class="s0" d="m407.4 647.8h140.8v8.4h-140.8z"/>
		<g id="XMLID_104_">
			<path id="XMLID_76_" class="s1" d="m646 592.9h-332.2c-6.6 0-12-5.4-12-12v-222.5c0-6.6 5.4-12 12-12h332.2c6.6 0 12 5.4 12 12v222.4c0 6.7-5.3 12.1-12 12.1z"/>
			<path id="XMLID_80_" class="s2" d="m636.9 369v181.7h-312.6v-181.7z"/>
			<path id="XMLID_18_" class="s3" d="m646.8 592.9h-52.1v-94.8c0-7.6 6.1-13.7 13.7-13.7h38.4z"/>
			<path id="XMLID_107_" class="s3" d="m348.3 522.9v70h-29.1c-9.4 0-17.4-7.6-17.4-16.9v-74.7h25.3c11.6 0 21.1 9.9 21.2 21.6z"/>
			<path id="XMLID_5_" class="s4" d="m647 592.9h-332.8c-6.6 0-12-5.4-12-12v-222.5c0-6.6 5.4-12 12-12h332.8c6.6 0 12 5.4 12 12v222.4c0 6.7-5.4 12.1-12 12.1z"/>
			<path id="XMLID_7_" class="s4" d="m636.5 369v181.7h-311.7v-181.7z"/>
		</g>
		<path id="XMLID_179_" class="s5" d="m575.9 541.9h-171.8c-3.9 0-7-3.2-7-7v-122.6c0-3.9 3.2-7 7-7h171.8c3.9 0 7 3.2 7 7v122.5c0 3.9-3.1 7.1-7 7.1z"/>
		<path id="XMLID_134_" class="s6" d="m567.9 535.1h-171.8c-3.9 0-7-3.2-7-7v-122.5c0-3.9 3.2-7 7-7h171.8c3.9 0 7 3.2 7 7v122.5c0.1 3.9-3.1 7-7 7z"/>
		<path id="XMLID_137_" class="s4" d="m567.9 535.1h-171.8c-3.9 0-7-3.2-7-7v-122.5c0-3.9 3.2-7 7-7h171.8c3.9 0 7 3.2 7 7v122.5c0.1 3.9-3.1 7-7 7z"/>
		<path id="XMLID_96_" class="s7" d="m522.5 647.8h-83.8l10.4-54.9h63z"/>
		<path id="XMLID_99_" class="s5" d="m446.3 608.4l2.8-15.5h63l2.8 15.5z"/>
		<path id="XMLID_3_" class="s4" d="m522.5 647.8h-83.8l10.4-54.9h63z"/>
		<path id="XMLID_8_" class="s4" d="m407.4 647.8h140.8v8.4h-140.8z"/>
		<path id="XMLID_9_" class="s0" d="m480.1 573.9c-3.4 0-6.2-2.8-6.2-6.2 0-3.4 2.8-6.2 6.2-6.2 3.4 0 6.2 2.8 6.2 6.2 0 3.4-2.8 6.2-6.2 6.2z"/>
		<path id="XMLID_133_" class="s8" d="m553.8 522.5h-171.8c-3.9 0-7-3.2-7-7v-122.6c0-3.9 3.2-7 7-7h171.8c3.9 0 7 3.2 7 7v122.5c0.1 3.9-3.1 7.1-7 7.1z"/>
		<path id="XMLID_25_" class="s4" d="m553.8 522.5h-171.8c-3.9 0-7-3.2-7-7v-122.6c0-3.9 3.2-7 7-7h171.8c3.9 0 7 3.2 7 7v122.5c0.1 3.9-3.1 7.1-7 7.1z"/>
		<path id="XMLID_105_" class="s1" d="m560.9 407h-185.9v-13.8c0-4 3.3-7.4 7.4-7.4h171.6c3.8 0 6.9 3.1 6.9 6.9z"/>
		<path id="XMLID_26_" class="s4" d="m560.9 407h-185.9v-13.8c0-4 3.3-7.4 7.4-7.4h171.6c3.8 0 6.9 3.1 6.9 6.9z"/>
		<g id="XMLID_108_">
			<path id="XMLID_106_" class="s0" d="m392.9 399.8c-1.8 0-3.3-1.5-3.3-3.3 0-1.8 1.5-3.3 3.3-3.3 1.8 0 3.3 1.5 3.3 3.3 0 1.8-1.5 3.3-3.3 3.3z"/>
			<path id="XMLID_109_" class="s0" d="m403.8 399.8c-1.8 0-3.3-1.5-3.3-3.3 0-1.8 1.5-3.3 3.3-3.3 1.8 0 3.3 1.5 3.3 3.3 0 1.8-1.5 3.3-3.3 3.3z"/>
			<path id="XMLID_120_" class="s0" d="m414.6 399.8c-1.8 0-3.3-1.5-3.3-3.3 0-1.8 1.5-3.3 3.3-3.3 1.8 0 3.3 1.5 3.3 3.3 0 1.8-1.5 3.3-3.3 3.3z"/>
		</g>
		<path id="XMLID_122_" class="s9" d="m543.4 443.6h-152.3c-1.1 0-2-0.9-2-2v-21.3c0-1.1 0.9-2 2-2h152.3c1.1 0 2 0.9 2 2v21.3c0 1.1-0.9 2-2 2z"/>
		<g id="XMLID_123_">
			<path id="XMLID_124_" class="s10" d="m434.9 470.3h-43.9c-1.1 0-2-0.9-2-2v-11.5c0-1.1 0.9-2 2-2h43.9c1.1 0 2 0.9 2 2v11.5c0 1.1-0.8 2-2 2z"/>
			<path id="XMLID_125_" class="s11" d="m396.1 481.6h35.2"/>
			<path id="XMLID_128_" class="s11" d="m396.1 492.9h35.2"/>
		</g>
		<g id="XMLID_127_">
			<path id="XMLID_131_" class="s10" d="m489.9 470.3h-43.9c-1.1 0-2-0.9-2-2v-11.5c0-1.1 0.9-2 2-2h43.9c1.1 0 2 0.9 2 2v11.5c0 1.1-0.9 2-2 2z"/>
			<path id="XMLID_130_" class="s11" d="m451 481.6h33.8"/>
			<path id="XMLID_129_" class="s11" d="m451 492.9h33.8"/>
		</g>
		<g id="XMLID_132_" style="opacity: .2">
			<path id="XMLID_135_" class="s0" d="m544.8 494.3h-43.9c-1.1 0-2-0.9-2-2v-35.4c0-1.1 0.9-2 2-2h43.9c1.1 0 2 0.9 2 2v35.4c0 1.1-0.9 2-2 2z"/>
		</g>
		<g id="XMLID_126_" style="opacity: .1">
			<path id="XMLID_136_" class="s0" d="m543.4 505.6h-41.8c-1.6 0-2.8-1.3-2.8-2.8 0-1.5 1.3-2.8 2.8-2.8h41.8c1.6 0 2.8 1.3 2.8 2.8 0 1.5-1.3 2.8-2.8 2.8z"/>
		</g>
	</g>
	<g id="XMLID_23_">
		<g id="XMLID_12_">
			<path id="XMLID_71_" fill-rule="evenodd" class="s8" d="m237.6 621.5v25.5c0 4.6-3.8 8.8-8.4 8.8h-80.6c-1 0-1.9-0.6-2.6-1.2l-19.5-17.3c-1.8-1.5-1.8-4.3 0-5.9l19.5-17c0.7-0.7 1.6-1 2.6-1h80.6c4.6 0 8.3 3.7 8.4 8.1zm-86.2 12.8c0-2.8-2.2-5-5-5-2.8 0-5 2.2-5 5 0 2.8 2.3 5 5 5 2.8 0 5-2.2 5-5z"/>
			<path id="XMLID_70_" class="s12" d="m167.1 613.4h23.5v42.5h-23.5z"/>
			<path id="XMLID_69_" class="s13" d="m190.6 613.4h23.5v42.5h-23.5z"/>
			<path id="XMLID_58_" class="s14" d="m227.1 655.9h-13v-42.5h13.4c5.5 0 10.1 4.5 10.1 10.1v22c-0.1 5.7-4.8 10.4-10.5 10.4z"/>
			<path id="XMLID_117_" fill-rule="evenodd" class="s3" d="m230.4 616l-71.8 36.6c-1.2 0.6-2.4 0.9-3.7 0.9-0.7 0-1.4 0-2-0.2l-13.2-3.3-12.2-10.7c-1.8-1.5-1.8-4.3 0-5.9l19.5-17c0.7-0.7 1.6-1 2.6-1h80.6c0.4 0 0.8 0 1.2 0.1-0.3 0.2-0.7 0.4-1 0.5zm-78 20.3c0-2.8-2.2-5-5-5-2.8 0-5 2.2-5 5 0 2.8 2.3 5 5 5 2.8 0 5-2.2 5-5z"/>
			<path id="XMLID_29_" class="s4" d="m237.6 621.5v25.5c0 4.6-3.8 8.8-8.4 8.8h-80.6c-1 0-1.9-0.6-2.6-1.2l-19.5-17.3c-1.8-1.5-1.8-4.3 0-5.9l19.5-17c0.7-0.7 1.6-1 2.6-1h80.6c4.6 0 8.3 3.7 8.4 8.1zm-91.2 17.8c-2.7 0-5-2.2-5-5 0-2.8 2.2-5 5-5 2.8 0 5 2.2 5 5 0 2.8-2.2 5-5 5z"/>
			<path id="XMLID_17_" class="s4" d="m167.1 613.4h23.5v42.5h-23.5z"/>
			<path id="XMLID_21_" class="s4" d="m190.6 613.4h23.5v42.5h-23.5z"/>
			<path id="XMLID_22_" class="s4" d="m227.1 655.9h-13v-42.5h13.4c5.5 0 10.1 4.5 10.1 10.1v22c-0.1 5.7-4.8 10.4-10.5 10.4z"/>
		</g>
		<g id="XMLID_20_">
			<path id="XMLID_74_" class="s8" d="m219.5 576.7l11.6 22.7c2.1 4 0.5 9-3.6 11.1l-71.8 36.6c-0.9 0.4-1.9 0.5-2.8 0.3l-25.1-6.4c-2.3-0.6-3.6-3.1-2.7-5.3l9.6-24c0.4-0.9 1-1.7 1.9-2.1l71.8-36.6c4-2.1 9-0.5 11.1 3.7z"/>
			<path id="XMLID_77_" class="s15" d="m173.9 590.5l21-10.6 19.1 37.4-21 10.6z"/>
			<path id="XMLID_33_" class="s4" d="m219.5 576.7l11.6 22.7c2.1 4 0.5 9-3.6 11.1l-71.8 36.6c-0.9 0.4-1.9 0.5-2.8 0.3l-25.1-6.4c-2.3-0.6-3.6-3.1-2.7-5.3l9.6-24c0.4-0.9 1-1.7 1.9-2.1l71.8-36.6c4-2.1 9-0.5 11.1 3.7z"/>
			<path id="XMLID_34_" class="s0" d="m144.2 635.1c-3.2 0-5.8-2.6-5.8-5.8 0-3.2 2.6-5.8 5.8-5.8 3.2 0 5.8 2.6 5.8 5.8 0 3.2-2.6 5.8-5.8 5.8z"/>
			<path id="XMLID_79_" class="s16" d="m153 601.3l20.9-10.7 19.1 37.4-20.9 10.7z"/>
			<path id="XMLID_32_" class="s4" d="m153 601.3l20.9-10.7 19.1 37.4-20.9 10.7z"/>
			<path id="XMLID_31_" class="s4" d="m173.9 590.5l21-10.6 19.1 37.4-21 10.6z"/>
			<path id="XMLID_30_" class="s9" d="m225.9 611.2l-12 6.1-19.1-37.4 12-6.1c4.9-2.5 10.9-0.6 13.5 4.4l10 19.6c2.5 4.9 0.5 10.9-4.4 13.4z"/>
			<path id="XMLID_78_" class="s4" d="m225.9 611.2l-12 6.1-19.1-37.4 12-6.1c4.9-2.5 10.9-0.6 13.5 4.4l10 19.6c2.5 4.9 0.5 10.9-4.4 13.4z"/>
		</g>
	</g>
	<g id="XMLID_90_">
		<path id="XMLID_102_" class="s8" d="m327 656.2h-67.3c-5.5 0-10-4.5-10-10v-134.9c0-5.5 4.5-10 10-10h67.3c5.5 0 10 4.5 10 10v134.9c0 5.6-4.5 10-10 10z"/>
		<path id="XMLID_83_" class="s9" d="m338.4 547.8h-88.7v-36.7c0-5.4 4.4-9.8 9.8-9.8h68.5c5.7 0 10.3 4.7 10.3 10.3v36.2z"/>
		<path id="XMLID_10_" class="s4" d="m327 656.2h-67.3c-5.5 0-10-4.5-10-10v-134.9c0-5.5 4.5-10 10-10h67.3c5.5 0 10 4.5 10 10v134.9c0 5.6-4.5 10-10 10z"/>
		<path id="XMLID_82_" class="s1" d="m327.1 656.2h-67.1c-5.7 0-10.4-4.7-10.4-10.4v-19.2h87.4v19.7c0 5.5-4.5 9.9-9.9 9.9z"/>
		<path id="XMLID_81_" class="s4" d="m327.3 656.2h-67.3c-5.7 0-10.4-4.7-10.4-10.4v-19.2h87.4v19.9c0 5.4-4.4 9.7-9.7 9.7z"/>
		<path id="XMLID_84_" class="s0" d="m294 645.8c-2.8 0-5-2.2-5-5 0-2.8 2.2-5 5-5 2.8 0 5 2.2 5 5 0 2.8-2.2 5-5 5z"/>
		<path id="XMLID_86_" class="s17" d="m269.4 563.3h49.3"/>
		<path id="XMLID_87_" class="s17" d="m279.2 578.8h31"/>
		<path id="XMLID_88_" class="s17" d="m269.4 592.9h49.3"/>
		<path id="XMLID_85_" class="s18" d="m294 539.3c-6.2 0-11.2-5-11.2-11.2 0-6.2 5-11.2 11.2-11.2 6.2 0 11.2 5 11.2 11.2 0 6.2-5 11.2-11.2 11.2z"/>
		<path id="XMLID_89_" class="s13" d="m310.2 608.4c0 3.1-2.5 5.6-5.6 5.6h-21.1c-3.1 0-5.6-2.5-5.6-5.6 0-3.1 2.5-5.6 5.6-5.6h21.1c3.1-0.1 5.6 2.4 5.6 5.6z"/>
	</g>
	<g id="XMLID_111_">
		<path id="XMLID_100_" class="s1" d="m848.2 637.9h-242.3v-145.6c0-4.3 3.5-7.8 7.8-7.8h226.8c4.2 0 7.6 3.4 7.6 7.6v145.8z"/>
		<path id="XMLID_11_" class="s4" d="m848.8 638.2h-242.2v-146c0-4.4 3.6-8 8-8h226.2c4.4 0 8 3.6 8 8z"/>
		<path id="XMLID_101_" class="s19" d="m835.5 497.1v128.2h-215.5v-128.2z"/>
		<path id="XMLID_183_" class="s5" d="m672.7 600.9h-18.6c-1.1 0-2-0.9-2-2v-63.7c0-1.1 0.9-2 2-2h18.6c1.1 0 2 0.9 2 2v63.8c0 1-0.9 1.9-2 1.9z"/>
		<path id="XMLID_178_" class="s5" d="m807 613.8h-107.4c-2.2 0-4-1.8-4-4v-82.1c0-2.2 1.8-4 4-4h107.4c2.2 0 4 1.8 4 4v82.1c0 2.2-1.7 4-4 4z"/>
		<path id="XMLID_103_" class="s4" d="m835.3 497.6v127.1h-215.3v-127.1z"/>
		<path id="XMLID_110_" class="s8" d="m875.2 647.6c0 4.4-3.6 8-8 8h-279.1c-4.4 0-8-3.6-8-8v-9.4h295.1z"/>
		<path id="XMLID_206_" class="s20" d="m580.3 646.3h294.7c-1 5.7-5.5 9.9-11 9.9h-272.6c-5.5 0-10.1-4.2-11.1-9.9z"/>
		<path id="XMLID_15_" class="s4" d="m875.2 647.6c0 4.4-3.6 8-8 8h-279.1c-4.4 0-8-3.6-8-8v-9.4h295.1z"/>
		<path id="XMLID_201_" class="s12" d="m646.8 528.1h22.5v22.5h-22.5z"/>
		<path id="XMLID_138_" class="s4" d="m647.2 528.3h22.5v22.5h-22.5z"/>
		<path id="XMLID_180_" class="s4" d="m647.2 528.3h22.5v22.5h-22.5z"/>
		<path id="XMLID_156_" class="s15" d="m646.8 550.6h22.5v22.5h-22.5z"/>
		<path id="XMLID_140_" class="s4" d="m647.2 550.9h22.5v22.5h-22.5z"/>
		<path id="XMLID_202_" class="s9" d="m646.8 573.1h22.5v22.5h-22.5z"/>
		<path id="XMLID_143_" class="s4" d="m647.2 573.4h22.5v22.5h-22.5z"/>
		<path id="XMLID_115_" class="s8" d="m800.5 606.9h-107.5c-2.2 0-4-1.8-4-4v-82.1c0-2.2 1.8-4 4-4h107.5c2.2 0 4 1.8 4 4v82.1c0 2.3-1.8 4-4 4z"/>
		<path id="XMLID_139_" class="s4" d="m800.5 606.9h-107.5c-2.2 0-4-1.8-4-4v-82.1c0-2.2 1.8-4 4-4h107.5c2.2 0 4 1.8 4 4v82.1c0 2.3-1.8 4-4 4z"/>
		<g id="XMLID_147_" style="opacity: .3">
			<g id="XMLID_205_">
				<path id="XMLID_419_" class="s21" d="m770.7 583.2v1.5h-1.5"/>
				<path id="XMLID_418_" class="s22" d="m767.3 584.7h-41.9"/>
				<path id="XMLID_417_" class="s21" d="m724.4 584.7h-1.5v-1.5"/>
				<path id="XMLID_416_" class="s23" d="m722.9 581.1v-39"/>
				<path id="XMLID_415_" class="s21" d="m722.9 541.1v-1.5h1.5"/>
				<path id="XMLID_214_" class="s22" d="m726.3 539.6h41.9"/>
				<path id="XMLID_213_" class="s21" d="m769.2 539.6h1.5v1.5"/>
				<path id="XMLID_211_" class="s23" d="m770.7 543.1v39.1"/>
			</g>
		</g>
		<g id="XMLID_155_">
			<path id="XMLID_154_" class="s8" d="m719.6 536.1h7.1v7.1h-7.1z"/>
			<path id="XMLID_153_" class="s24" d="m719.3 535.8h7v7h-7z"/>
		</g>
		<g id="XMLID_157_">
			<path id="XMLID_159_" class="s8" d="m719.6 581.1h7.1v7.1h-7.1z"/>
			<path id="XMLID_158_" class="s24" d="m719.3 580.9h7v7h-7z"/>
		</g>
		<g id="XMLID_162_">
			<path id="XMLID_166_" class="s8" d="m767.2 536.1h7.1v7.1h-7.1z"/>
			<path id="XMLID_164_" class="s24" d="m767.2 535.8h7v7h-7z"/>
		</g>
		<g id="XMLID_196_">
			<path id="XMLID_198_" class="s8" d="m767.2 581.1h7.1v7.1h-7.1z"/>
			<path id="XMLID_197_" class="s24" d="m767.2 580.9h7v7h-7z"/>
		</g>
		<g id="XMLID_229_">
			<g id="XMLID_225_">
				<path id="XMLID_230_" class="s8" d="m673.8 569.5l3.5 7-4.8 4.8-6.9-3.6-7.1-15.2z"/>
				<path id="XMLID_227_" class="s24" d="m673.8 569.5l3.5 7-4.8 4.8-6.9-3.6-7.1-15.2z"/>
				<path id="XMLID_224_" class="s0" d="m667.5 573c-1.1 0-1.9-0.8-1.9-1.9 0-1.1 0.8-1.9 1.9-1.9 1.1 0 1.9 0.8 1.9 1.9 0 1.1-0.8 1.9-1.9 1.9z"/>
				<path id="XMLID_226_" class="s25" d="m658.5 562.5l7.9 7.9"/>
			</g>
			<path id="XMLID_231_" class="s8" d="m672.5 581.2l4.8-4.8 3.5 3.5-4.8 4.8z"/>
			<path id="XMLID_228_" class="s26" d="m672.5 581.2l4.8-4.8 3.5 3.5-4.8 4.8z"/>
		</g>
	</g>
</svg>