<svg version="1.2" xmlns="http://www.w3.org/2000/svg" viewBox="0 0 836 324" width="650" height="252">
	<title>banner-home-svg</title>
	<style>
		.s0 { fill: #444e59 } 
		.s1 { fill: #bbbfc2 } 
		.s2 { fill: #28a8e0 } 
		.s3 { opacity: .4;fill: #848484 } 
		.s4 { fill: none;stroke: #444e59;stroke-linecap: round;stroke-linejoin: round;stroke-width: 4 } 
		.s5 { opacity: .3;fill: #848484 } 
		.s6 { fill: #afb1b2 } 
		.s7 { fill: #aeaeaf } 
		.s8 { fill: #ffffff } 
		.s9 { fill: #10b981 } 
		.s10 { opacity: .2;fill: #444e59 } 
		.s11 { opacity: .2;fill: none;stroke: #444e59;stroke-linecap: round;stroke-linejoin: round;stroke-width: 4 } 
		.s12 { fill: #dbeafe } 
		.s13 { fill: #93c5fd } 
		.s14 { fill: #1e40af } 
		.s15 { fill: #5eead4 } 
		.s16 { fill: #d1fae5;stroke: #444e59;stroke-linecap: round;stroke-linejoin: round;stroke-width: 4 } 
		.s17 { fill: #14b8a6 } 
		.s18 { opacity: .3;fill: none;stroke: #444e59;stroke-linecap: round;stroke-linejoin: round;stroke-width: 4 } 
		.s19 { opacity: .6;fill: #ffffff } 
		.s20 { opacity: .7;fill: #5d5d5d } 
		.s21 { opacity: .8;fill: #bbbfc2 } 
		.s22 { fill: #0284c7 } 
		.s23 { fill: none;stroke: #444e59;stroke-linejoin: round;stroke-width: 2 } 
		.s24 { fill: none;stroke: #444e59;stroke-linejoin: round;stroke-width: 2;stroke-dasharray: 2,2 } 
		.s25 { fill: none;stroke: #444e59;stroke-linejoin: round;stroke-width: 2;stroke-dasharray: 4,2 } 
		.s26 { fill: none;stroke: #444e59;stroke-linejoin: round } 
		.s27 { fill: none;stroke: #444e59;stroke-linecap: round;stroke-linejoin: round } 
	</style>
	<path id="XMLID_1313_" class="s0" d="m824.8 323.3h-814.1c-5 0-9-4-9-9 0-5 4-9 9-9h814.2c5 0 9 4 9 9-0.1 5-4.1 9-9.1 9z"/>
	<g id="Desktop">
		<path id="XMLID_6_" class="s0" d="m322.4 304.8h140.8v8.4h-140.8z"/>
		<g id="XMLID_104_">
			<path id="XMLID_76_" class="s1" d="m561 249.9h-332.2c-6.6 0-12-5.4-12-12v-222.5c0-6.6 5.4-12 12-12h332.2c6.6 0 12 5.4 12 12v222.4c0 6.7-5.3 12.1-12 12.1z"/>
			<path id="XMLID_80_" class="s2" d="m551.9 26v181.7h-312.6v-181.7z"/>
			<path id="XMLID_18_" class="s3" d="m561.8 249.9h-52.1v-94.8c0-7.6 6.1-13.7 13.7-13.7h38.4z"/>
			<path id="XMLID_107_" class="s3" d="m263.3 179.9v70h-29.1c-9.4 0-17.4-7.6-17.4-16.9v-74.7h25.3c11.6 0 21.1 9.9 21.2 21.6z"/>
			<path id="XMLID_5_" class="s4" d="m562 249.9h-332.8c-6.6 0-12-5.4-12-12v-222.5c0-6.6 5.4-12 12-12h332.8c6.6 0 12 5.4 12 12v222.4c0 6.7-5.4 12.1-12 12.1z"/>
			<path id="XMLID_7_" class="s4" d="m551.5 26v181.7h-311.7v-181.7z"/>
		</g>
		<path id="XMLID_179_" class="s5" d="m490.9 198.9h-171.8c-3.9 0-7-3.2-7-7v-122.6c0-3.9 3.2-7 7-7h171.8c3.9 0 7 3.2 7 7v122.5c0 3.9-3.1 7.1-7 7.1z"/>
		<path id="XMLID_134_" class="s6" d="m482.9 192.1h-171.8c-3.9 0-7-3.2-7-7v-122.5c0-3.9 3.2-7 7-7h171.8c3.9 0 7 3.2 7 7v122.5c0.1 3.9-3.1 7-7 7z"/>
		<path id="XMLID_137_" class="s4" d="m482.9 192.1h-171.8c-3.9 0-7-3.2-7-7v-122.5c0-3.9 3.2-7 7-7h171.8c3.9 0 7 3.2 7 7v122.5c0.1 3.9-3.1 7-7 7z"/>
		<path id="XMLID_96_" class="s7" d="m437.5 304.8h-83.8l10.4-54.9h63z"/>
		<path id="XMLID_99_" class="s5" d="m361.3 265.4l2.8-15.5h63l2.8 15.5z"/>
		<path id="XMLID_3_" class="s4" d="m437.5 304.8h-83.8l10.4-54.9h63z"/>
		<path id="XMLID_8_" class="s4" d="m322.4 304.8h140.8v8.4h-140.8z"/>
		<path id="XMLID_9_" class="s0" d="m395.1 230.9c-3.4 0-6.2-2.8-6.2-6.2 0-3.4 2.8-6.2 6.2-6.2 3.4 0 6.2 2.8 6.2 6.2 0 3.4-2.8 6.2-6.2 6.2z"/>
		<path id="XMLID_133_" class="s8" d="m468.8 179.5h-171.8c-3.9 0-7-3.2-7-7v-122.6c0-3.9 3.2-7 7-7h171.8c3.9 0 7 3.2 7 7v122.5c0.1 3.9-3.1 7.1-7 7.1z"/>
		<path id="XMLID_25_" class="s4" d="m468.8 179.5h-171.8c-3.9 0-7-3.2-7-7v-122.6c0-3.9 3.2-7 7-7h171.8c3.9 0 7 3.2 7 7v122.5c0.1 3.9-3.1 7.1-7 7.1z"/>
		<path id="XMLID_105_" class="s1" d="m475.9 64h-185.9v-13.8c0-4 3.3-7.4 7.4-7.4h171.6c3.8 0 6.9 3.1 6.9 6.9z"/>
		<path id="XMLID_26_" class="s4" d="m475.9 64h-185.9v-13.8c0-4 3.3-7.4 7.4-7.4h171.6c3.8 0 6.9 3.1 6.9 6.9z"/>
		<g id="XMLID_108_">
			<path id="XMLID_106_" class="s0" d="m307.9 56.8c-1.8 0-3.3-1.5-3.3-3.3 0-1.8 1.5-3.3 3.3-3.3 1.8 0 3.3 1.5 3.3 3.3 0 1.8-1.5 3.3-3.3 3.3z"/>
			<path id="XMLID_109_" class="s0" d="m318.8 56.8c-1.8 0-3.3-1.5-3.3-3.3 0-1.8 1.5-3.3 3.3-3.3 1.8 0 3.3 1.5 3.3 3.3 0 1.8-1.5 3.3-3.3 3.3z"/>
			<path id="XMLID_120_" class="s0" d="m329.6 56.8c-1.8 0-3.3-1.5-3.3-3.3 0-1.8 1.5-3.3 3.3-3.3 1.8 0 3.3 1.5 3.3 3.3 0 1.8-1.5 3.3-3.3 3.3z"/>
		</g>
		<path id="main bar" class="s9" d="m458.4 100.6h-152.3c-1.1 0-2-0.9-2-2v-21.3c0-1.1 0.9-2 2-2h152.3c1.1 0 2 0.9 2 2v21.3c0 1.1-0.9 2-2 2z"/>
		<g id="XMLID_123_">
			<path id="XMLID_124_" class="s10" d="m349.9 127.3h-43.9c-1.1 0-2-0.9-2-2v-11.5c0-1.1 0.9-2 2-2h43.9c1.1 0 2 0.9 2 2v11.5c0 1.1-0.8 2-2 2z"/>
			<path id="XMLID_125_" class="s11" d="m311.1 138.6h35.2"/>
			<path id="XMLID_128_" class="s11" d="m311.1 149.9h35.2"/>
		</g>
		<g id="XMLID_127_">
			<path id="XMLID_131_" class="s10" d="m404.9 127.3h-43.9c-1.1 0-2-0.9-2-2v-11.5c0-1.1 0.9-2 2-2h43.9c1.1 0 2 0.9 2 2v11.5c0 1.1-0.9 2-2 2z"/>
			<path id="XMLID_130_" class="s11" d="m366 138.6h33.8"/>
			<path id="XMLID_129_" class="s11" d="m366 149.9h33.8"/>
		</g>
		<g id="XMLID_132_" style="opacity: .2">
			<path id="XMLID_135_" class="s0" d="m459.8 151.3h-43.9c-1.1 0-2-0.9-2-2v-35.4c0-1.1 0.9-2 2-2h43.9c1.1 0 2 0.9 2 2v35.4c0 1.1-0.9 2-2 2z"/>
		</g>
		<g id="XMLID_126_" style="opacity: .1">
			<path id="XMLID_136_" class="s0" d="m458.4 162.6h-41.8c-1.6 0-2.8-1.3-2.8-2.8 0-1.5 1.3-2.8 2.8-2.8h41.8c1.6 0 2.8 1.3 2.8 2.8 0 1.5-1.3 2.8-2.8 2.8z"/>
		</g>
	</g>
	<g id="Color Tab">
		<g id="bottom">
			<path id="XMLID_71_" fill-rule="evenodd" class="s8" d="m152.6 278.5v25.5c0 4.6-3.8 8.8-8.4 8.8h-80.6c-1 0-1.9-0.6-2.6-1.2l-19.5-17.3c-1.8-1.5-1.8-4.3 0-5.9l19.5-17c0.7-0.7 1.6-1 2.6-1h80.6c4.6 0 8.3 3.7 8.4 8.1zm-86.2 12.8c0-2.8-2.2-5-5-5-2.8 0-5 2.2-5 5 0 2.8 2.3 5 5 5 2.8 0 5-2.2 5-5z"/>
			<path id="bottom color" class="s12" d="m82.1 270.4h23.5v42.5h-23.5z"/>
			<path id="middle color" class="s13" d="m105.6 270.4h23.5v42.5h-23.5z"/>
			<path id="top color" class="s14" d="m142.1 312.9h-13v-42.5h13.4c5.5 0 10.1 4.5 10.1 10.1v22c-0.1 5.7-4.8 10.4-10.5 10.4z"/>
			<path id="XMLID_117_" fill-rule="evenodd" class="s3" d="m145.4 273l-71.8 36.6c-1.2 0.6-2.4 0.9-3.7 0.9-0.7 0-1.4 0-2-0.2l-13.2-3.3-12.2-10.7c-1.8-1.5-1.8-4.3 0-5.9l19.5-17c0.7-0.7 1.6-1 2.6-1h80.6c0.4 0 0.8 0 1.2 0.1-0.3 0.2-0.7 0.4-1 0.5zm-78 20.3c0-2.8-2.2-5-5-5-2.8 0-5 2.2-5 5 0 2.8 2.3 5 5 5 2.8 0 5-2.2 5-5z"/>
			<path id="XMLID_29_" class="s4" d="m152.6 278.5v25.5c0 4.6-3.8 8.8-8.4 8.8h-80.6c-1 0-1.9-0.6-2.6-1.2l-19.5-17.3c-1.8-1.5-1.8-4.3 0-5.9l19.5-17c0.7-0.7 1.6-1 2.6-1h80.6c4.6 0 8.3 3.7 8.4 8.1zm-91.2 17.8c-2.7 0-5-2.2-5-5 0-2.8 2.2-5 5-5 2.8 0 5 2.2 5 5 0 2.8-2.2 5-5 5z"/>
			<path id="XMLID_17_" class="s4" d="m82.1 270.4h23.5v42.5h-23.5z"/>
			<path id="XMLID_21_" class="s4" d="m105.6 270.4h23.5v42.5h-23.5z"/>
			<path id="XMLID_22_" class="s4" d="m142.1 312.9h-13v-42.5h13.4c5.5 0 10.1 4.5 10.1 10.1v22c-0.1 5.7-4.8 10.4-10.5 10.4z"/>
		</g>
		<g id="top">
			<path id="XMLID_74_" class="s8" d="m134.5 233.7l11.6 22.7c2.1 4 0.5 9-3.6 11.1l-71.8 36.6c-0.9 0.4-1.9 0.5-2.8 0.3l-25.1-6.4c-2.3-0.6-3.6-3.1-2.7-5.3l9.6-24c0.4-0.9 1-1.7 1.9-2.1l71.8-36.6c4-2.1 9-0.5 11.1 3.7z"/>
			<path id="middle color" class="s15" d="m88.9 247.5l21-10.6 19.1 37.4-21 10.6z"/>
			<path id="XMLID_33_" class="s4" d="m134.5 233.7l11.6 22.7c2.1 4 0.5 9-3.6 11.1l-71.8 36.6c-0.9 0.4-1.9 0.5-2.8 0.3l-25.1-6.4c-2.3-0.6-3.6-3.1-2.7-5.3l9.6-24c0.4-0.9 1-1.7 1.9-2.1l71.8-36.6c4-2.1 9-0.5 11.1 3.7z"/>
			<path id="XMLID_34_" class="s0" d="m59.2 292.1c-3.2 0-5.8-2.6-5.8-5.8 0-3.2 2.6-5.8 5.8-5.8 3.2 0 5.8 2.6 5.8 5.8 0 3.2-2.6 5.8-5.8 5.8z"/>
			<path id="bottom color" class="s16" d="m68 258.3l20.9-10.7 19.1 37.4-20.9 10.7z"/>
			<path id="XMLID_32_" class="s4" d="m68 258.3l20.9-10.7 19.1 37.4-20.9 10.7z"/>
			<path id="XMLID_31_" class="s4" d="m88.9 247.5l21-10.6 19.1 37.4-21 10.6z"/>
			<path id="top color" class="s17" d="m140.9 268.2l-12 6.1-19.1-37.4 12-6.1c4.9-2.5 10.9-0.6 13.5 4.4l10 19.6c2.5 4.9 0.5 10.9-4.4 13.4z"/>
			<path id="XMLID_78_" class="s4" d="m140.9 268.2l-12 6.1-19.1-37.4 12-6.1c4.9-2.5 10.9-0.6 13.5 4.4l10 19.6c2.5 4.9 0.5 10.9-4.4 13.4z"/>
		</g>
	</g>
	<g id="Cell Phone">
		<path id="XMLID_102_" class="s8" d="m242 313.2h-67.3c-5.5 0-10-4.5-10-10v-134.9c0-5.5 4.5-10 10-10h67.3c5.5 0 10 4.5 10 10v134.9c0 5.6-4.5 10-10 10z"/>
		<path id="XMLID_83_" class="s14" d="m253.4 204.8h-88.7v-36.7c0-5.4 4.4-9.8 9.8-9.8h68.5c5.7 0 10.3 4.7 10.3 10.3v36.2z"/>
		<path id="XMLID_10_" class="s4" d="m242 313.2h-67.3c-5.5 0-10-4.5-10-10v-134.9c0-5.5 4.5-10 10-10h67.3c5.5 0 10 4.5 10 10v134.9c0 5.6-4.5 10-10 10z"/>
		<path id="XMLID_82_" class="s1" d="m242.1 313.2h-67.1c-5.7 0-10.4-4.7-10.4-10.4v-19.2h87.4v19.7c0 5.5-4.5 9.9-9.9 9.9z"/>
		<path id="XMLID_81_" class="s4" d="m242.3 313.2h-67.3c-5.7 0-10.4-4.7-10.4-10.4v-19.2h87.4v19.9c0 5.4-4.4 9.7-9.7 9.7z"/>
		<path id="XMLID_84_" class="s0" d="m209 302.8c-2.8 0-5-2.2-5-5 0-2.8 2.2-5 5-5 2.8 0 5 2.2 5 5 0 2.8-2.2 5-5 5z"/>
		<path id="XMLID_86_" class="s18" d="m184.4 220.3h49.3"/>
		<path id="XMLID_87_" class="s18" d="m194.2 235.8h31"/>
		<path id="XMLID_88_" class="s18" d="m184.4 249.9h49.3"/>
		<path id="XMLID_85_" class="s19" d="m209 196.3c-6.2 0-11.2-5-11.2-11.2 0-6.2 5-11.2 11.2-11.2 6.2 0 11.2 5 11.2 11.2 0 6.2-5 11.2-11.2 11.2z"/>
		<path id="bottom button" class="s9" d="m225.2 265.4c0 3.1-2.5 5.6-5.6 5.6h-21.1c-3.1 0-5.6-2.5-5.6-5.6 0-3.1 2.5-5.6 5.6-5.6h21.1c3.1-0.1 5.6 2.4 5.6 5.6z"/>
	</g>
	<g id="Laptop">
		<path id="XMLID_100_" class="s1" d="m764.2 294.9h-242.3v-145.6c0-4.3 3.5-7.8 7.8-7.8h226.8c4.2 0 7.6 3.4 7.6 7.6v145.8z"/>
		<path id="XMLID_11_" class="s4" d="m764.8 295.2h-242.2v-146c0-4.4 3.6-8 8-8h226.2c4.4 0 8 3.6 8 8z"/>
		<path id="XMLID_101_" class="s20" d="m751.5 154.1v128.2h-215.5v-128.2z"/>
		<path id="XMLID_183_" class="s5" d="m588.7 257.9h-18.6c-1.1 0-2-0.9-2-2v-63.7c0-1.1 0.9-2 2-2h18.6c1.1 0 2 0.9 2 2v63.8c0 1-0.9 1.9-2 1.9z"/>
		<path id="XMLID_178_" class="s5" d="m723 270.8h-107.4c-2.2 0-4-1.8-4-4v-82.1c0-2.2 1.8-4 4-4h107.4c2.2 0 4 1.8 4 4v82.1c0 2.2-1.7 4-4 4z"/>
		<path id="XMLID_103_" class="s4" d="m751.3 154.6v127.1h-215.3v-127.1z"/>
		<path id="XMLID_110_" class="s8" d="m791.2 304.6c0 4.4-3.6 8-8 8h-279.1c-4.4 0-8-3.6-8-8v-9.4h295.1z"/>
		<path id="XMLID_206_" class="s21" d="m496.3 303.3h294.7c-1 5.7-5.5 9.9-11 9.9h-272.6c-5.5 0-10.1-4.2-11.1-9.9z"/>
		<path id="XMLID_15_" class="s4" d="m791.2 304.6c0 4.4-3.6 8-8 8h-279.1c-4.4 0-8-3.6-8-8v-9.4h295.1z"/>
		<path id="orange square" class="s9" d="m562.8 185.1h22.5v22.5h-22.5z"/>
		<path id="XMLID_138_" class="s4" d="m563.2 185.3h22.5v22.5h-22.5z"/>
		<path id="XMLID_180_" class="s4" d="m563.2 185.3h22.5v22.5h-22.5z"/>
		<path id="middle square" class="s14" d="m562.8 207.6h22.5v22.5h-22.5z"/>
		<path id="XMLID_140_" class="s4" d="m563.2 207.9h22.5v22.5h-22.5z"/>
		<path id="Bottom Square" class="s22" d="m562.8 230.1h22.5v22.5h-22.5z"/>
		<path id="XMLID_143_" class="s4" d="m563.2 230.4h22.5v22.5h-22.5z"/>
		<path id="XMLID_115_" class="s8" d="m716.5 263.9h-107.5c-2.2 0-4-1.8-4-4v-82.1c0-2.2 1.8-4 4-4h107.5c2.2 0 4 1.8 4 4v82.1c0 2.3-1.8 4-4 4z"/>
		<path id="XMLID_139_" class="s4" d="m716.5 263.9h-107.5c-2.2 0-4-1.8-4-4v-82.1c0-2.2 1.8-4 4-4h107.5c2.2 0 4 1.8 4 4v82.1c0 2.3-1.8 4-4 4z"/>
		<g id="XMLID_147_" style="opacity: .3">
			<g id="XMLID_205_">
				<path id="XMLID_419_" class="s23" d="m686.7 240.2v1.5h-1.5"/>
				<path id="XMLID_418_" class="s24" d="m683.3 241.7h-41.9"/>
				<path id="XMLID_417_" class="s23" d="m640.4 241.7h-1.5v-1.5"/>
				<path id="XMLID_416_" class="s25" d="m638.9 238.1v-39"/>
				<path id="XMLID_415_" class="s23" d="m638.9 198.1v-1.5h1.5"/>
				<path id="XMLID_214_" class="s24" d="m642.3 196.6h41.9"/>
				<path id="XMLID_213_" class="s23" d="m685.2 196.6h1.5v1.5"/>
				<path id="XMLID_211_" class="s25" d="m686.7 200.1v39.1"/>
			</g>
		</g>
		<g id="XMLID_155_">
			<path id="XMLID_154_" class="s8" d="m635.6 193.1h7.1v7.1h-7.1z"/>
			<path id="XMLID_153_" class="s26" d="m635.3 192.8h7v7h-7z"/>
		</g>
		<g id="XMLID_157_">
			<path id="XMLID_159_" class="s8" d="m635.6 238.1h7.1v7.1h-7.1z"/>
			<path id="XMLID_158_" class="s26" d="m635.3 237.9h7v7h-7z"/>
		</g>
		<g id="XMLID_162_">
			<path id="XMLID_166_" class="s8" d="m683.2 193.1h7.1v7.1h-7.1z"/>
			<path id="XMLID_164_" class="s26" d="m683.2 192.8h7v7h-7z"/>
		</g>
		<g id="XMLID_196_">
			<path id="XMLID_198_" class="s8" d="m683.2 238.1h7.1v7.1h-7.1z"/>
			<path id="XMLID_197_" class="s26" d="m683.2 237.9h7v7h-7z"/>
		</g>
		<g id="XMLID_229_">
			<g id="XMLID_225_">
				<path id="XMLID_230_" class="s8" d="m589.8 226.5l3.5 7-4.8 4.8-6.9-3.6-7.1-15.2z"/>
				<path id="XMLID_227_" class="s26" d="m589.8 226.5l3.5 7-4.8 4.8-6.9-3.6-7.1-15.2z"/>
				<path id="XMLID_224_" class="s0" d="m583.5 230c-1.1 0-1.9-0.8-1.9-1.9 0-1.1 0.8-1.9 1.9-1.9 1.1 0 1.9 0.8 1.9 1.9 0 1.1-0.8 1.9-1.9 1.9z"/>
				<path id="XMLID_226_" class="s27" d="m574.5 219.5l7.9 7.9"/>
			</g>
			<path id="XMLID_231_" class="s8" d="m588.5 238.2l4.8-4.8 3.5 3.5-4.8 4.8z"/>
			<path id="XMLID_228_" class="s26" d="m588.5 238.2l4.8-4.8 3.5 3.5-4.8 4.8z"/>
		</g>
	</g>
</svg>